<svg width="33" height="30" viewBox="0 0 33 30" fill="none" xmlns="http://www.w3.org/2000/svg">
<path d="M0.0526276 3.23288C0.0526276 1.03157 2.19513 -0.512393 4.2471 0.210186L9.48423 2.05438C10.1471 2.28782 10.4644 3.05174 10.1657 3.69521C9.91136 4.24299 9.2936 4.51232 8.72626 4.32272L4.63713 2.95627C3.61563 2.61494 2.56368 3.38584 2.56368 4.47579V21.3122C2.56368 21.9786 2.97136 22.5753 3.587 22.8098L12.9844 26.3897C14.0168 26.783 15.1189 26.0097 15.1189 24.8921V7.33504C15.1189 6.20622 15.8203 5.19969 16.8701 4.82206L28.516 0.632623C30.5584 -0.102142 32.7076 1.41882 32.7303 3.61502L32.9295 23.0637C32.9403 24.125 32.3289 25.0918 31.3729 25.5254L25.1325 28.3556C24.5813 28.6057 23.9329 28.3876 23.6384 27.8534C23.3088 27.2556 23.5484 26.4998 24.1601 26.2084L29.5295 23.6494C30.0829 23.3856 30.4363 22.8214 30.4363 22.2015V4.74849C30.4363 3.64571 29.3613 2.87355 28.3345 3.23881L18.686 6.6707C18.0534 6.89571 17.63 7.50102 17.63 8.1804V26.8772C17.63 28.7412 15.7908 30.0302 14.0696 29.3721L1.75542 24.6652C0.730799 24.2735 0.0526276 23.2798 0.0526276 22.1701V3.23288Z" fill="#202020" fill-opacity="0.9"/>
</svg>
